<svg xmlns="http://www.w3.org/2000/svg" width="24" height="24" viewBox="0 0 24 24"><g transform="translate(0)"><path d="M1594.924,153.7a12,12,0,1,0,8.452,3.594A11.963,11.963,0,0,0,1594.924,153.7Zm3.77,6.859a16.971,16.971,0,0,1,3.054.863,16.624,16.624,0,0,1-.081,8.684,16.973,16.973,0,0,1-3.069.806,33.75,33.75,0,0,0,.1-10.353Zm-.129-.764a19.491,19.491,0,0,0-.595-2.407,8.662,8.662,0,0,0-1.272-2.615,7.426,7.426,0,0,1,3.428,2.952,12.219,12.219,0,0,1,1.357,2.821A18.484,18.484,0,0,0,1598.565,159.8Zm-.25,5.938a31.524,31.524,0,0,1-.477,5.293,22.572,22.572,0,0,1-6.15-.057,33.045,33.045,0,0,1,.1-10.595,22.562,22.562,0,0,1,6.15.057A31.5,31.5,0,0,1,1598.315,165.734Zm-3.4-11.3c.894.008,1.73,1.223,2.36,3.179a18.213,18.213,0,0,1,.524,2.065,23.276,23.276,0,0,0-5.865-.055,18.215,18.215,0,0,1,.562-2.055C1593.165,155.622,1594.024,154.424,1594.917,154.432Zm-3.107,2.9a19.477,19.477,0,0,0-.639,2.4,18.486,18.486,0,0,0-2.932.7,12.216,12.216,0,0,1,1.409-2.8,7.426,7.426,0,0,1,3.482-2.888A8.662,8.662,0,0,0,1591.811,157.332Zm-.879,13.51a16.97,16.97,0,0,1-3.054-.863,16.621,16.621,0,0,1,.081-8.684,16.967,16.967,0,0,1,3.069-.806,33.76,33.76,0,0,0-.1,10.353Zm-4.013-13.184a11.275,11.275,0,0,1,4.118-2.579,9.369,9.369,0,0,0-1.989,2.137,13.26,13.26,0,0,0-1.685,3.529q-.469.188-.9.4a8.23,8.23,0,0,0-2.609,1.914A11.251,11.251,0,0,1,1586.918,157.659Zm-.133,4.14q.159-.078.324-.154a17.429,17.429,0,0,0-.074,7.968q-.164-.078-.321-.16c-1.972-1.018-3.185-2.385-3.171-3.857S1584.795,162.781,1586.785,161.8Zm-.016,11.8a11.252,11.252,0,0,1-2.963-5.457,8.231,8.231,0,0,0,2.573,1.962q.425.219.891.417a13.253,13.253,0,0,0,1.619,3.56,9.368,9.368,0,0,0,1.949,2.173A11.275,11.275,0,0,1,1586.77,173.6Zm2.729.08a12.219,12.219,0,0,1-1.357-2.821,18.484,18.484,0,0,0,2.919.752,19.485,19.485,0,0,0,.594,2.407,8.662,8.662,0,0,0,1.272,2.614A7.425,7.425,0,0,1,1589.5,173.676Zm5.209,3.3c-.893-.008-1.73-1.223-2.36-3.179a18.265,18.265,0,0,1-.524-2.065,23.277,23.277,0,0,0,5.865.055,18.2,18.2,0,0,1-.562,2.056C1596.46,175.781,1595.6,176.979,1594.708,176.971Zm3.107-2.9a19.473,19.473,0,0,0,.639-2.4,18.486,18.486,0,0,0,2.932-.7,12.22,12.22,0,0,1-1.409,2.8,7.427,7.427,0,0,1-3.482,2.888A8.664,8.664,0,0,0,1597.815,174.071Zm4.892-.327a11.276,11.276,0,0,1-4.118,2.579,9.369,9.369,0,0,0,1.989-2.137,13.253,13.253,0,0,0,1.685-3.529q.47-.188.9-.4a8.229,8.229,0,0,0,2.609-1.914A11.252,11.252,0,0,1,1602.707,173.744Zm.133-4.14q-.159.078-.324.154a17.42,17.42,0,0,0,.074-7.968q.164.078.321.16c1.972,1.018,3.185,2.385,3.171,3.857S1604.83,168.623,1602.84,169.6Zm.405-8.3q-.425-.219-.892-.417a13.251,13.251,0,0,0-1.619-3.56,9.367,9.367,0,0,0-1.949-2.173,11.293,11.293,0,0,1,7.032,8.112A8.229,8.229,0,0,0,1603.245,161.3Z" transform="translate(-1582.813 -153.702)" fill="#ffffff"/></g><rect width="24" height="24" fill="none" opacity="0.24"/></svg>